<svg width="57" height="57" viewBox="0 0 57 57" fill="none" xmlns="http://www.w3.org/2000/svg">
<path d="M28.348 5.15796C14.749 5.15796 3.72302 16.181 3.72302 29.783C3.72302 39.865 9.78602 48.527 18.462 52.336C18.393 50.615 18.45 48.553 18.891 46.682C19.364 44.682 22.059 33.264 22.059 33.264C22.059 33.264 21.272 31.692 21.272 29.368C21.272 25.72 23.387 22.995 26.021 22.995C28.261 22.995 29.343 24.677 29.343 26.69C29.343 28.942 27.906 32.309 27.168 35.428C26.552 38.041 28.478 40.172 31.055 40.172C35.72 40.172 38.863 34.18 38.863 27.08C38.863 21.683 35.228 17.643 28.617 17.643C21.147 17.643 16.494 23.213 16.494 29.435C16.494 31.581 17.127 33.093 18.118 34.265C18.573 34.802 18.637 35.019 18.472 35.636C18.354 36.089 18.083 37.181 17.971 37.613C17.807 38.238 17.302 38.461 16.738 38.23C13.298 36.826 11.695 33.058 11.695 28.822C11.695 21.828 17.594 13.44 29.294 13.44C38.694 13.44 44.882 20.244 44.882 27.547C44.882 37.205 39.513 44.422 31.597 44.422C28.938 44.422 26.437 42.984 25.581 41.354C25.581 41.354 24.151 47.028 23.849 48.122C23.327 50.022 22.304 51.919 21.37 53.397C23.585 54.051 25.924 54.407 28.349 54.407C41.947 54.407 52.972 43.384 52.972 29.784C52.971 16.181 41.945 5.15796 28.348 5.15796Z" fill="#CC0000"/>
</svg>
